# xmcd CD database file
# Generated: Fri Jan  4 23:28:33 2002 by WSPse's MP3c
#
# Track frame offsets:
#       150
#       11275
#       24262
#       37675
#       50425
#       63287
#       78462
#       93437
#       103350
#       116037
#       126962
#       141150
#
# Disc length: 2068 seconds
#
# Revision: 1
# Processed by: cddbd v1.4PL0 Copyright (c) Steve Scherf et al.
# Submitted via: MP3c 0.27
#   WSPse mp3c-0.27 (NLS) - ENGLISH (Jan  4 2002)
#
DISCID=9508120c
DTITLE=Various Artist - Country Legends - All American
DYEAR=1900
DGENRE=
TTITLE0=America, The Beautiful
TTITLE1=All American Man
TTITLE2=The Statue In The Bay
TTITLE3=Six White Horses
TTITLE4=The Eagle
TTITLE5=Living In The Promiseland
TTITLE6=In America
TTITLE7=The All American Dream
TTITLE8=Johnny Freedom (Freedomland)
TTITLE9=The Promised Land
TTITLE10=America Is
TTITLE11=Ragged Old Flag
EXTD=
EXTT0=Charlie Rich
EXTT1=Johnny Paycheck
EXTT2=Gene Autry With The Cass County Boys and The Pinafores
EXTT3=Tommy Cash
EXTT4=Waylon Jennings
EXTT5=Willie Nelson
EXTT6=The Charlie Daniels Band
EXTT7=Moe Bandy
EXTT8=Johnny Horton
EXTT9=Freddie Weller
EXTT10=B.J. Thomas
EXTT11=Johnny Cash
PLAYORDER=
